# xmcd
#
# Track frame offsets:
#	150
#	18007
#	41407
#	61542
#	79454
#	99166
#	117026
#	135249
#	157398
#	175117
#	194320
#	211975
#	229383
#	249254
#	264368
#	284108
#	302514
#	319486
#	337959
#
# Disc length: 4787 seconds
#
# Revision: 196612
# Processed by: cddbd v1.5.2PL0 Copyright (c) Steve Scherf et al.
# Submitted via: EZCDAudioConverter 8.2.2.1
#
DISCID=fe12b113
DTITLE=Taylor Swift - Fearless (Platinum Edition)
DYEAR=2009
DGENRE=Country
TTITLE0=Jump Then Fall
TTITLE1=Untouchable
TTITLE2=Forever and Always (Piano Version)
TTITLE3=Come in with the Rain
TTITLE4=Superstar
TTITLE5=The Other Side of the Door
TTITLE6=Fearless
TTITLE7=Fifteen
TTITLE8=Love Story
TTITLE9=Hey Stephen
TTITLE10=White Horse
TTITLE11=You Belong with Me
TTITLE12=Breathe (Featuring Colbie Caillat)
TTITLE13=Tell Me Why
TTITLE14=You're Not Sorry
TTITLE15=The Way I Loved You
TTITLE16=Forever and Always
TTITLE17=The Best Day
TTITLE18=Change
EXTD=
EXTT0=
EXTT1=
EXTT2=
EXTT3=
EXTT4=
EXTT5=
EXTT6=
EXTT7=
EXTT8=
EXTT9=
EXTT10=
EXTT11=
EXTT12=
EXTT13=
EXTT14=
EXTT15=
EXTT16=
EXTT17=
EXTT18=
PLAYORDER=
